PathFileType	4	(X/Y/Z)	SUBJ82_1_walk_RCNL2025.trc
DataRate	CameraRate	NumFrames	NumMarkers	Units	OrigDataRate	OrigDataStartFrame	OrigNumFrames
100	100	5	25	mm	100	114	226
Frame#	Time	R_Shoulder			L_Shoulder			C7			J_Notch			R_Elbow			L_Elbow			R_Wrist			L_Wrist			R_Asis			L_Asis			Sacral			Thoracic			Sternum			R_Thigh_Lateral			R_Knee_Lateral			R_Shank_Lateral			R_Ankle_Lateral			R_Heel			R_Toe			L_Thigh_Lateral			L_Knee_Lateral			L_Shank_Lateral			L_Ankle_Lateral			L_Heel			L_Toe		
		X1	Y1	Z1	X2	Y2	Z2	X3	Y3	Z3	X4	Y4	Z4	X5	Y5	Z5	X6	Y6	Z6	X7	Y7	Z7	X8	Y8	Z8	X9	Y9	Z9	X10	Y10	Z10	X11	Y11	Z11	X12	Y12	Z12	X13	Y13	Z13	X14	Y14	Z14	X15	Y15	Z15	X16	Y16	Z16	X17	Y17	Z17	X18	Y18	Z18	X19	Y19	Z19	X20	Y20	Z20	X21	Y21	Z21	X22	Y22	Z22	X23	Y23	Z23	X24	Y24	Z24	X25	Y25	Z25
114	1.13000000	547.509705	1394.700928	-23.056751	569.216370	1402.329468	-433.235138	498.161133	1487.466431	-224.685135	626.317078	1375.729492	-222.349854	542.895020	1064.462646	84.543213	407.751984	1087.982544	-490.101410	727.234772	883.506744	44.795250	414.017822	824.161072	-475.555176	575.379089	958.900696	-78.941872	629.591797	968.378662	-342.192688	428.772034	982.275574	-264.238647	407.582214	1256.633667	-245.937439	650.758240	1196.808228	-217.730225	398.032135	553.162964	-71.057213	373.460510	471.062592	-126.055450	270.569031	263.637817	-82.136177	214.593002	92.907509	-187.345779	168.757202	71.215874	-233.680588	343.186890	48.777264	-193.561142	650.845764	529.441406	-401.344330	693.116699	469.060303	-358.361633	794.593079	261.535217	-401.427948	890.991943	91.233429	-340.235962	871.049744	57.339714	-280.958618	1031.479248	137.433350	-328.199585
115	1.14000000	563.680420	1391.933228	-23.507898	584.882690	1399.353882	-433.814880	514.141296	1484.685669	-225.160965	642.281799	1372.762207	-222.912109	559.683655	1061.924316	84.391685	423.036591	1084.935059	-489.897797	745.148895	881.943115	44.586576	428.839264	821.068054	-475.078720	591.039124	956.424316	-78.355919	646.794312	965.723206	-341.497833	445.649078	979.199524	-265.612518	423.368988	1253.940063	-246.366592	666.652344	1193.899414	-218.032440	410.049561	552.534790	-69.902771	384.727722	470.468323	-124.754936	277.379517	265.327026	-80.852272	216.413452	96.339951	-186.121429	169.920166	76.046379	-232.293564	343.705353	48.813229	-193.201981	670.975464	527.587158	-401.426025	713.800781	467.744720	-358.293579	816.949646	261.085083	-401.317383	912.853943	90.830246	-339.803070	891.967163	56.734215	-280.981262	1053.289551	137.328690	-325.292450
116	1.15000000	579.991638	1389.460083	-24.037289	600.643494	1396.673828	-434.467865	530.209045	1482.192139	-225.714890	658.370361	1370.137207	-223.579254	576.168457	1059.619263	84.037254	438.911377	1081.977295	-489.983704	762.350983	880.152191	44.362590	444.626663	818.088684	-474.830292	607.126953	954.152405	-77.826645	664.229675	963.515686	-340.899384	462.817749	976.453003	-266.836884	439.366608	1251.439575	-246.738968	682.758789	1191.353760	-218.496582	422.648041	552.070374	-68.583107	396.577423	470.022247	-123.197838	284.647949	267.379822	-79.240120	218.610001	100.284790	-184.591812	171.479553	81.594559	-230.599289	344.332611	48.809155	-192.749374	693.106812	527.042114	-402.046509	735.402466	467.064056	-358.587036	837.603333	260.107269	-401.043121	930.944702	89.167038	-338.912445	908.746948	55.127716	-280.614319	1071.505737	134.554245	-321.939545
117	1.16000000	596.432861	1387.304565	-24.651817	616.493408	1394.309937	-435.197327	546.353149	1480.002075	-226.351608	674.589233	1367.891968	-224.349106	592.350891	1057.570679	83.496086	455.373138	1079.129517	-490.344482	778.809723	878.145844	44.127080	461.396393	815.246002	-474.817657	623.718689	952.083313	-77.405632	681.930237	961.793579	-340.447510	480.316193	974.081360	-267.865784	455.601654	1249.134888	-247.056442	699.124695	1189.217896	-219.115067	435.883911	551.747742	-67.162422	409.068787	469.720367	-121.434937	292.384949	269.814178	-77.402901	221.285339	104.754303	-182.843521	173.588425	87.892776	-228.711304	345.097778	48.746136	-192.250732	716.648865	527.572388	-403.082855	757.549744	466.870544	-359.155426	856.508789	258.582794	-400.561096	945.660034	86.397690	-337.603088	921.947632	52.654305	-279.868134	1086.507080	129.372620	-318.224823
118	1.17000000	612.982849	1385.482910	-25.354141	632.427490	1392.275513	-436.002838	562.562012	1478.129639	-227.075836	690.941711	1366.058960	-225.213669	608.239807	1055.796997	82.784340	472.410309	1076.411865	-490.955139	794.519897	875.941467	43.882884	479.150146	812.561554	-475.045227	640.871277	950.213562	-77.138496	699.908264	960.574158	-340.182648	498.157104	972.127014	-268.677521	472.096741	1247.029053	-247.325546	715.794800	1187.533691	-219.869003	449.827972	551.535645	-65.697571	422.294128	469.549530	-119.512886	300.640015	272.643036	-75.444061	224.565887	109.758240	-180.955521	176.429459	94.969376	-226.739990	346.029968	48.609653	-191.751846	740.891052	528.862488	-404.388733	779.812744	467.003601	-359.905090	873.721558	256.604218	-399.863190	957.520264	82.827400	-335.964233	932.252441	49.599812	-278.810364	1098.780884	122.213295	-314.239288
